<?xml version="1.0" encoding="UTF-8" standalone="no"?>
<!DOCTYPE svg PUBLIC "-//W3C//DTD SVG 1.1//EN" "http://www.w3.org/Graphics/SVG/1.1/DTD/svg11.dtd">
<svg width="100%" height="100%" viewBox="0 0 128 128" version="1.1" xmlns="http://www.w3.org/2000/svg" xmlns:xlink="http://www.w3.org/1999/xlink" xml:space="preserve" xmlns:serif="http://www.serif.com/" style="fill-rule:evenodd;clip-rule:evenodd;stroke-linejoin:round;stroke-miterlimit:2;">
    <g transform="matrix(1,0,0,1,4.42553,-1.70213)">
        <g>
            <g transform="matrix(0.796099,0,0,0.796099,8.62411,14.7518)">
                <circle cx="64" cy="64" r="64" style="fill:rgb(136,197,204);"/>
            </g>
            <g transform="matrix(0.796099,0,0,0.796099,8.62411,14.7518)">
                <path d="M64,128C98.192,128 126.119,101.186 127.905,67.437L121,62L97,79L58,63L34,85L1.852,79.285C8.706,107.248 33.924,128 64,128Z" style="fill:rgb(64,106,128);fill-rule:nonzero;"/>
            </g>
            <g transform="matrix(0.796099,0,0,0.796099,8.62411,14.7518)">
                <path d="M122.632,60.844C121.993,59.944 120.745,59.728 119.844,60.368L96.741,76.732L58.759,61.15C58.041,60.853 57.22,61.002 56.65,61.525L33.378,82.857L1.363,77.166C1.664,78.604 2.024,80.018 2.42,81.417L33.65,86.969C33.767,86.99 33.884,87 34,87C34.496,87 34.979,86.815 35.352,86.475L58.415,65.332L96.241,80.85C96.874,81.111 97.595,81.029 98.156,80.632L122.156,63.632C123.058,62.994 123.271,61.745 122.632,60.844Z" style="fill:rgb(245,245,245);fill-rule:nonzero;"/>
            </g>
            <g transform="matrix(0.796099,0,0,0.796099,8.62411,14.7518)">
                <circle cx="97" cy="79" r="4" style="fill:rgb(245,245,245);"/>
                <path d="M97,75C99.21,75 101,76.79 101,79C101,81.21 99.21,83 97,83C94.79,83 93,81.21 93,79C93,76.79 94.79,75 97,75M97,73C93.691,73 91,75.691 91,79C91,82.309 93.691,85 97,85C100.309,85 103,82.309 103,79C103,75.691 100.309,73 97,73Z" style="fill:rgb(204,88,76);fill-rule:nonzero;"/>
            </g>
            <g transform="matrix(0.796099,0,0,0.796099,8.62411,14.7518)">
                <circle cx="121" cy="62" r="4" style="fill:rgb(245,245,245);"/>
                <path d="M121,58C123.21,58 125,59.79 125,62C125,64.21 123.21,66 121,66C118.79,66 117,64.21 117,62C117,59.79 118.79,58 121,58M121,56C117.691,56 115,58.691 115,62C115,65.309 117.691,68 121,68C124.309,68 127,65.309 127,62C127,58.691 124.309,56 121,56Z" style="fill:rgb(204,88,76);fill-rule:nonzero;"/>
            </g>
            <g transform="matrix(0.796099,0,0,0.796099,8.62411,14.7518)">
                <circle cx="58" cy="63" r="4" style="fill:rgb(245,245,245);"/>
                <path d="M58,59C60.21,59 62,60.79 62,63C62,65.21 60.21,67 58,67C55.79,67 54,65.21 54,63C54,60.79 55.79,59 58,59M58,57C54.691,57 52,59.691 52,63C52,66.309 54.691,69 58,69C61.309,69 64,66.309 64,63C64,59.691 61.309,57 58,57Z" style="fill:rgb(204,88,76);fill-rule:nonzero;"/>
            </g>
            <g transform="matrix(0.796099,0,0,0.796099,8.62411,14.7518)">
                <circle cx="34" cy="85" r="4" style="fill:rgb(245,245,245);"/>
                <path d="M34,81C36.21,81 38,82.79 38,85C38,87.21 36.21,89 34,89C31.79,89 30,87.21 30,85C30,82.79 31.79,81 34,81M34,79C30.691,79 28,81.691 28,85C28,88.309 30.691,91 34,91C37.309,91 40,88.309 40,85C40,81.691 37.309,79 34,79Z" style="fill:rgb(204,88,76);fill-rule:nonzero;"/>
            </g>
        </g>
    </g>
</svg>
